#!OML:ASF E:\Style4\Style4.ASF
:FULLY-SPECIFIED
:DEGREES
3335
root -0.0562484 17.1753 -2.34249 4.15049 1.14771 3.65059
lowerback 16.086 1.46103 -1.86456
upperback 9.48303 1.68282 0.590887
thorax 0.992639 0.757295 1.42015
lowerneck 2.89779 -2.58966 -5.90242
upperneck 7.03755 -3.50684 0.230134
head 1.83075 -1.8763 1.04051
rclavicle -4.37326e-015 -1.59028e-015
rhumerus -1.46715 -6.35687 -75.5052
rradius 13.9728
rwrist 2.39777
rhand -9.09008 0.399702
rfingers 7.12502
rthumb 16.8597 -28.8884
lclavicle -4.37326e-015 -1.59028e-015
lhumerus -11.4666 -26.1924 81.6979
lradius 38.45
lwrist 13.5741
lhand -7.32202 45.4177
lfingers 7.12502
lthumb 18.5611 74.5522
rfemur -29.9831 -3.30383 16.8538
rtibia 49.4605
rfoot -22.2911 -13.7187
rtoes -7.69028
lfemur -27.9262 0.859357 -22.8911
ltibia 45.4389
lfoot -20.8013 7.06466
ltoes -15.7865
3336
root -0.0581241 17.2119 -2.34244 4.37998 1.20756 3.53326
lowerback 15.9788 1.44057 -1.67189
upperback 9.31081 1.68178 0.538283
thorax 0.869843 0.768025 1.25637
lowerneck 2.80076 -2.63987 -5.71356
upperneck 7.29427 -3.56638 0.321441
head 1.9305 -1.90404 1.03444
rclavicle 1.98785e-014 -1.11319e-014
rhumerus -2.87875 2.07574 -75.0409
rradius 16.5923
rwrist -1.8406
rhand -6.69343 -0.313334
rfingers 7.12502
rthumb 19.1657 -29.389
lclavicle 1.98785e-014 -1.11319e-014
lhumerus -12.0791 -27.6412 81.3921
lradius 39.4767
lwrist 11.0557
lhand -5.05992 43.5134
lfingers 7.12502
lthumb 20.7358 72.4255
rfemur -29.8432 -3.28623 16.9907
rtibia 48.7912
rfoot -22.0934 -13.6929
rtoes -7.16833
lfemur -27.8187 0.775648 -22.7435
ltibia 44.7599
lfoot -20.4417 7.0436
ltoes -15.6592
3337
root -0.060642 17.2497 -2.33845 4.62507 1.25734 3.43903
lowerback 15.8275 1.42058 -1.57407
upperback 9.13533 1.66988 0.511882
thorax 0.764473 0.768372 1.176
lowerneck 2.56864 -2.66651 -5.6794
upperneck 7.69972 -3.59115 0.487255
head 2.108 -1.91909 1.07719
rclavicle 2.38542e-015 0
rhumerus -4.42977 9.61266 -74.6893
rradius 19.7054
rwrist -5.62728
rhand -4.32447 -0.486116
rfingers 7.12502
rthumb 21.4423 -29.3195
lclavicle 2.38542e-015 0
lhumerus -12.7742 -29.3784 81.1165
lradius 40.8191
lwrist 9.65204
lhand -3.12607 41.0202
lfingers 7.12502
lthumb 22.593 69.718
rfemur -29.7078 -3.23015 17.0944
rtibia 48.1173
rfoot -21.9075 -13.6596
rtoes -6.77976
lfemur -27.7128 0.715625 -22.6234
ltibia 44.0953
lfoot -20.2396 7.00288
ltoes -15.1515
3338
root -0.0633614 17.2848 -2.33322 4.87384 1.28176 3.37454
lowerback 15.6372 1.4116 -1.54208
upperback 8.95907 1.66429 0.482057
thorax 0.677408 0.769122 1.12903
lowerneck 2.38113 -2.72045 -5.64004
upperneck 8.11576 -3.65506 0.631579
head 2.28331 -1.95316 1.11223
rclavicle -2.66371e-014 7.15625e-015
rhumerus -5.98412 15.8634 -74.4045
rradius 23.0079
rwrist -8.65907
rhand -2.15605 0.0253161
rfingers 7.12502
rthumb 23.5237 -28.5562
lclavicle -2.66371e-014 7.15625e-015
lhumerus -13.5592 -31.2187 80.8538
lradius 42.3907
lwrist 9.13212
lhand -1.9256 38.5033
lfingers 7.12502
lthumb 23.7448 67.0563
rfemur -29.5949 -3.16657 17.1676
rtibia 47.4596
rfoot -21.6441 -13.6393
rtoes -6.64563
lfemur -27.6277 0.62835 -22.53
ltibia 43.4701
lfoot -20.1534 6.85123
ltoes -13.6398
3339
root -0.0648682 17.3166 -2.32858 5.12166 1.30707 3.3747
lowerback 15.4744 1.39022 -1.56894
upperback 8.78016 1.63419 0.432989
thorax 0.573534 0.756075 1.0981
lowerneck 2.28731 -2.77379 -5.56622
upperneck 8.43746 -3.72572 0.766211
head 2.41089 -1.98773 1.13954
rclavicle -1.98785e-015 5.56597e-015
rhumerus -7.46576 21.3308 -74.1272
rradius 26.4342
rwrist -11.6131
rhand -0.172223 0.899716
rfingers 7.12502
rthumb 25.4254 -27.4246
lclavicle -1.98785e-015 5.56597e-015
lhumerus -14.4264 -32.9689 80.5565
lradius 44.1482
lwrist 9.20185
lhand -1.02316 36.1862
lfingers 7.12502
lthumb 24.61 64.6242
rfemur -29.5205 -3.19013 17.1734
rtibia 46.8432
rfoot -21.3348 -13.5946
rtoes -6.60454
lfemur -27.5618 0.516099 -22.5109
ltibia 42.8775
lfoot -19.953 6.76604
ltoes -12.561
3340
root -0.0665107 17.3474 -2.32348 5.33096 1.35632 3.31523
lowerback 15.3755 1.35805 -1.53091
upperback 8.58946 1.59736 0.412248
thorax 0.424905 0.741598 1.05977
lowerneck 2.33803 -2.81595 -5.47524
upperneck 8.6164 -3.7899 0.86657
head 2.4639 -2.01703 1.1551
rclavicle -4.37326e-015 0
rhumerus -8.99901 25.8984 -73.9246
rradius 29.954
rwrist -14.537
rhand 1.45145 2.21041
rfingers 7.12502
rthumb 26.9799 -25.8831
lclavicle -4.37326e-015 0
lhumerus -15.347 -34.6069 80.2764
lradius 45.9858
lwrist 9.62544
lhand -0.0986537 33.8818
lfingers 7.12502
lthumb 25.4959 62.1961
rfemur -29.4013 -3.23315 17.2514
rtibia 46.257
rfoot -21.1251 -13.566
rtoes -6.41765
lfemur -27.4764 0.445538 -22.437
ltibia 42.3424
lfoot -19.67 6.7947
ltoes -12.3376
3341
root -0.0696018 17.3758 -2.31613 5.53795 1.37457 3.17157
lowerback 15.2282 1.35046 -1.42439
upperback 8.42902 1.60257 0.42426
thorax 0.333497 0.748854 1.01233
lowerneck 2.34272 -2.85173 -5.45956
upperneck 8.79512 -3.84672 1.0168
head 2.52858 -2.04355 1.19955
rclavicle 1.78906e-014 -1.23246e-014
rhumerus -10.5246 29.6453 -73.7485
rradius 33.5179
rwrist -17.3393
rhand 2.34567 3.818
rfingers 7.12502
rthumb 27.8351 -24.1401
lclavicle 1.78906e-014 -1.23246e-014
lhumerus -16.226 -36.2067 80.0078
lradius 47.8431
lwrist 10.2062
lhand 0.746904 31.406
lfingers 7.12502
lthumb 26.3056 59.602
rfemur -29.3072 -3.195 17.4235
rtibia 45.7132
rfoot -20.9244 -13.5314
rtoes -6.08828
lfemur -27.4219 0.436172 -22.2607
ltibia 41.8544
lfoot -19.4688 6.78523
ltoes -12.0584
3342
root -0.0709305 17.4019 -2.30652 5.75643 1.36519 3.07567
lowerback 14.9951 1.34787 -1.35548
upperback 8.31686 1.61072 0.417647
thorax 0.338439 0.755758 0.968699
lowerneck 2.31294 -2.87526 -5.42239
upperneck 8.91906 -3.88368 1.13071
head 2.57896 -2.05951 1.22866
rclavicle 1.19271e-015 -1.23246e-014
rhumerus -11.869 32.7431 -73.5884
rradius 36.8919
rwrist -19.8164
rhand 2.55908 5.58096
rfingers 7.12502
rthumb 28.0392 -22.344
lclavicle 1.19271e-015 -1.23246e-014
lhumerus -17.0161 -37.7085 79.7042
lradius 49.7127
lwrist 10.8819
lhand 1.46912 28.8301
lfingers 7.12502
lthumb 26.9968 56.921
rfemur -29.24 -3.1652 17.5309
rtibia 45.2177
rfoot -20.7799 -13.4381
rtoes -5.75621
lfemur -27.393 0.410265 -22.135
ltibia 41.4233
lfoot -19.352 6.71327
ltoes -11.4394
3343
root -0.0719186 17.4249 -2.30068 5.92804 1.42261 3.04048
lowerback 14.8799 1.32497 -1.30903
upperback 8.19925 1.58764 0.401025
thorax 0.276443 0.747089 0.929262
lowerneck 2.33128 -2.88003 -5.43103
upperneck 8.97136 -3.90228 1.29075
head 2.5987 -2.06586 1.28202
rclavicle 1.03368e-014 3.18055e-015
rhumerus -13.2104 35.3105 -73.4638
rradius 40.2089
rwrist -21.873
rhand 2.31 7.23853
rfingers 7.12502
rthumb 27.801 -20.7251
lclavicle 1.03368e-014 3.18055e-015
lhumerus -17.7862 -39.1473 79.4121
lradius 51.5655
lwrist 11.676
lhand 2.33599 26.3869
lfingers 7.12502
lthumb 27.8259 54.3465
rfemur -29.1613 -3.23274 17.5771
rtibia 44.7927
rfoot -20.6784 -13.3475
rtoes -5.48626
lfemur -27.3641 0.286101 -22.0784
ltibia 41.0678
lfoot -19.1738 6.77087
ltoes -11.2924
3344
root -0.0744746 17.4401 -2.29853 6.02541 1.51717 2.9634
lowerback 14.8974 1.30394 -1.18722
upperback 8.09381 1.57438 0.373276
thorax 0.159354 0.746117 0.831819
lowerneck 2.34477 -2.91369 -5.40957
upperneck 8.98696 -3.96305 1.50264
head 2.60933 -2.09038 1.34638
rclavicle -1.90833e-014 5.56597e-015
rhumerus -14.5708 37.4393 -73.3954
rradius 43.5181
rwrist -23.8652
rhand 1.6714 8.86063
rfingers 7.12502
rthumb 27.1903 -19.2001
lclavicle -1.90833e-014 5.56597e-015
lhumerus -18.552 -40.6639 79.0731
lradius 53.5129
lwrist 12.7552
lhand 2.99355 24.3652
lfingers 7.12502
lthumb 28.4544 52.2214
rfemur -29.0739 -3.30064 17.6783
rtibia 44.4561
rfoot -20.5103 -13.3581
rtoes -5.6381
lfemur -27.3343 0.146218 -21.9617
ltibia 40.803
lfoot -19.067 6.84204
ltoes -11.3612
3345
root -0.0768819 17.451 -2.29498 6.12718 1.57422 2.79625
lowerback 14.8318 1.26666 -1.03737
upperback 8.0388 1.54532 0.4005
thorax 0.139022 0.73593 0.780653
lowerneck 2.31405 -2.92817 -5.43868
upperneck 8.97372 -3.99164 1.65233
head 2.61682 -2.10171 1.39953
rclavicle -7.55382e-015 -4.37326e-015
rhumerus -15.7371 39.5613 -73.28
rradius 46.696
rwrist -26.4114
rhand 0.210644 10.2279
rfingers 7.12502
rthumb 25.7921 -18.0438
lclavicle -7.55382e-015 -4.37326e-015
lhumerus -19.2695 -41.9119 78.7612
lradius 55.5206
lwrist 13.9457
lhand 3.52556 22.9102
lfingers 7.12502
lthumb 28.9626 50.6804
rfemur -29.0417 -3.37904 17.8926
rtibia 44.2094
rfoot -20.3924 -13.3268
rtoes -5.6988
lfemur -27.3681 0.0667566 -21.7518
ltibia 40.6506
lfoot -18.965 6.88735
ltoes -11.5401
3346
root -0.0782987 17.4583 -2.2935 6.29891 1.62944 2.74124
lowerback 14.6811 1.23408 -1.02474
upperback 7.96648 1.50614 0.41716
thorax 0.142624 0.71669 0.798567
lowerneck 2.37435 -2.93345 -5.4094
upperneck 8.88629 -4.00386 1.67472
head 2.57683 -2.10565 1.40241
rclavicle -5.56597e-015 1.11319e-014
rhumerus -16.779 41.4649 -73.1506
rradius 49.6433
rwrist -28.8795
rhand -1.4586 11.4815
rfingers 7.12502
rthumb 24.1926 -17.0126
lclavicle -5.56597e-015 1.11319e-014
lhumerus -19.9853 -43.01 78.4818
lradius 57.6001
lwrist 15.2953
lhand 4.01032 22.2504
lfingers 7.12502
lthumb 29.4256 49.9401
rfemur -29.1585 -3.53051 17.987
rtibia 44.0729
rfoot -20.2625 -13.2906
rtoes -5.89277
lfemur -27.5415 -0.00518366 -21.6767
ltibia 40.6103
lfoot -18.8583 6.90224
ltoes -11.6648
3347
root -0.0802087 17.4604 -2.29582 6.43793 1.67013 2.74444
lowerback 14.6118 1.21939 -1.06651
upperback 7.88556 1.48211 0.394149
thorax 0.0937455 0.704498 0.801792
lowerneck 2.5041 -2.92288 -5.29807
upperneck 8.67733 -4.00004 1.7164
head 2.4812 -2.09772 1.39865
rclavicle -6.36111e-015 3.97569e-016
rhumerus -17.7618 42.767 -73.09
rradius 52.409
rwrist -30.7651
rhand -2.87197 12.5086
rfingers 7.12502
rthumb 22.8368 -16.1594
lclavicle -6.36111e-015 3.97569e-016
lhumerus -20.6781 -44.0438 78.1663
lradius 59.7373
lwrist 17.2149
lhand 4.20299 22.1242
lfingers 7.12502
lthumb 29.6095 49.7815
rfemur -29.3335 -3.63847 18.0066
rtibia 44.0406
rfoot -20.108 -13.2839
rtoes -6.19382
lfemur -27.7464 -0.061193 -21.6686
ltibia 40.6745
lfoot -18.8085 6.9498
ltoes -11.9894
